<svg width="32" height="32" viewBox="0 0 800 800" fill="none" xmlns="http://www.w3.org/2000/svg">
<path d="M723.062 528.366L646.977 547.98L560.403 468.069L547.087 478.049L487.355 533.271L427.222 574.62L380.603 701.139L340.897 696.708L367.288 594.588L387.266 508.014L300.692 494.71L172.609 454.375L127.566 537.981L46.8875 651.952L0 647.391L74.2844 521.335L84.2734 358.191L126.798 223.541L273.295 165.833L353.973 231.667L484.088 196.381L527.109 201.705L616.044 295.031L712.298 376.864L713.105 388.153L718.103 458.647L723.062 528.366Z" fill="#18181b"/>
<path d="M631.092 355.641L586.297 383.591C586.297 383.591 610.927 410.828 641.48 400.586L631.092 355.641Z" fill="#52525b"/>
<path d="M718.103 458.647L649.466 378.169L698.584 369.833L713.105 388.153L718.103 458.647Z" fill="#52525b"/>
<path d="M643.063 357.723C643.063 357.723 661.756 311.305 708.064 317.534C754.384 323.744 773.127 356.514 799.997 348.562C800.325 359.273 773.745 371.722 751.905 368.789C738.678 367.011 689.919 353.351 686.216 387.542C678.975 401.701 638.273 380.205 643.063 357.723Z" fill="#a1a1aa"/>
</svg>