<svg width="800" height="800" viewBox="0 0 800 800" fill="none" xmlns="http://www.w3.org/2000/svg">
<path d="M166.614 219.959C157.103 217.136 150.848 212.316 146.686 206.461C142.533 200.575 140.472 193.414 140.472 185.786C140.442 173.547 145.959 160.4 155.719 151.577C160.25 147.433 168.187 142.644 177.708 138.242C192 131.598 209.875 125.614 226.228 121.356C234.395 119.245 242.192 117.531 248.944 116.386C255.677 115.225 261.423 114.648 265.138 114.648C266.652 114.648 267.797 114.758 268.375 114.858L268.673 114.922L268.723 114.938L269.83 111.552L267.719 114.355C268.345 114.823 268.684 114.903 268.723 114.938L269.83 111.552L267.719 114.355C268.684 115.081 270.606 116.616 273.095 118.613C281.85 125.664 297.884 138.773 313.091 150.208C320.709 155.934 328.089 161.222 334.453 165.241C337.639 167.238 340.548 168.93 343.277 170.22C344.661 170.867 345.977 171.431 347.38 171.869C348.784 172.302 350.228 172.675 352.159 172.691C352.977 172.691 353.883 172.611 354.869 172.367H354.888C357.545 171.705 361.131 170.644 365.175 169.419C377.275 165.723 393.191 160.416 393.22 160.4L387.972 144.595C387.963 144.611 386.209 145.192 383.431 146.114C379.248 147.484 372.756 149.595 366.452 151.577C360.178 153.563 353.983 155.436 350.856 156.208H350.886L352.161 161.431V156.048C351.872 156.048 351.444 156.062 350.886 156.208L352.161 161.431V156.048V158.513L352.689 156.077C352.68 156.077 352.559 156.048 352.161 156.048V158.513L352.689 156.077C352.63 156.077 352.042 155.895 351.205 155.542C349.62 154.866 347.181 153.545 344.353 151.789C339.364 148.722 333.1 144.32 326.477 139.414C316.527 132.059 305.761 123.544 296.819 116.355C292.338 112.759 288.314 109.497 285.047 106.873C281.759 104.209 279.3 102.242 277.706 101.047C276.522 100.161 275.397 99.6422 274.341 99.2594C272.767 98.6922 271.312 98.4188 269.8 98.2438C268.306 98.0641 266.772 98 265.139 98C258.109 98.0141 249.036 99.275 238.548 101.405C222.844 104.613 204.22 109.836 187.12 116.289C178.575 119.516 170.419 123.047 163.169 126.852C155.898 130.677 149.555 134.709 144.527 139.27C131.152 151.466 123.852 168.739 123.822 185.784C123.822 196.394 127.098 207.781 134.698 216.969C138.891 221.998 144.234 226.234 150.597 229.391C149.073 234.297 147.892 239.309 147.002 244.359C143.667 262.478 143.786 281.156 145.628 296.625C146.842 307.003 148.823 316.017 151.453 322.777C152.777 326.156 154.313 329.131 156.116 331.464C157.92 333.778 160.2 335.686 163.069 336.412C167.492 337.52 172.37 336.634 176.005 333.359C179.641 330.083 181.503 325.109 180.828 319.594L180.798 319.367L163.781 249.012L186.128 232.706L176.397 219.672L166.614 219.959Z" fill="#27272a"/>
<path d="M369.739 150.049L423.109 123.872C423.109 123.872 430.448 142.227 405.581 158.614C391.072 168.161 375.805 165.739 375.805 165.739L369.739 150.049Z" fill="#3f3f46"/>
<path d="M196.95 402.912L229.056 511.48L220.87 614.069L257.42 621.228L277.15 504.612L270.258 389.203L196.95 402.912Z" fill="#3f3f46"/>
<path d="M480.492 526.334L556.33 573.445L530.725 660.308L566.498 672.856L610.636 547.108L540.425 474.727L480.492 526.334Z" fill="#3f3f46"/>
<path d="M723.062 528.366L646.977 547.98L560.403 468.069L547.087 478.049L487.355 533.271L427.222 574.62L380.603 701.139L340.897 696.708L367.288 594.588L387.266 508.014L300.692 494.71L172.609 454.375L127.566 537.981L46.8875 651.952L0 647.391L74.2844 521.335L84.2734 358.191L126.798 223.541L273.295 165.833L353.973 231.667L484.088 196.381L527.109 201.705L616.044 295.031L712.298 376.864L713.105 388.153L718.103 458.647L723.062 528.366Z" fill="#18181b"/>
<path d="M692.48 433.665L679.166 415.909L681.386 428.119C681.386 428.119 672.513 442.534 681.386 445.861C690.269 449.197 692.48 433.665 692.48 433.665Z" fill="#3f3f46"/>
<path d="M631.092 355.641L586.297 383.591C586.297 383.591 610.927 410.828 641.48 400.586L631.092 355.641Z" fill="#52525b"/>
<path d="M353.973 231.667L249.095 274.953L310.681 196.706L353.973 231.667Z" fill="#3f3f46"/>
<path d="M348.425 485.822L234.106 445.861L166.405 380.38L159.742 475.842L160.122 477.58L172.62 454.391L300.692 494.71L387.266 508.014L401.697 453.633L385.045 479.163L348.425 485.822Z" fill="#3f3f46"/>
<path d="M646.977 547.98L567.066 423.119L487.355 533.255L567.066 471.389L646.977 547.98Z" fill="#3f3f46"/>
<path d="M706.911 505.53L707.736 522.999L693.595 524.675L706.911 505.53Z" fill="#3f3f46"/>
<path d="M718.103 458.647L649.466 378.169L698.584 369.833L713.105 388.153L718.103 458.647Z" fill="#52525b"/>
<path d="M643.063 357.723C643.063 357.723 661.756 311.305 708.064 317.534C754.384 323.744 773.127 356.514 799.997 348.562C800.325 359.273 773.745 371.722 751.905 368.789C738.678 367.011 689.919 353.351 686.216 387.542C678.975 401.701 638.273 380.205 643.063 357.723Z" fill="#a1a1aa"/>
</svg>